<svg xmlns="http://www.w3.org/2000/svg" version="1.1" xmlns:xlink="http://www.w3.org/1999/xlink" xmlns:svgjs="http://svgjs.dev/svgjs" viewBox="0 0 800 450" id="qqquad"><g fill="#1c98bb" shape-rendering="crispEdges"><rect width="196" height="108.5" x="602" y="2"></rect><rect width="96" height="52.25" x="502" y="2"></rect><rect width="96" height="52.25" x="402" y="2"></rect><rect width="96" height="52.25" x="402" y="58.25"></rect><rect width="96" height="52.25" x="502" y="58.25"></rect><rect width="96" height="52.25" x="502" y="114.5"></rect><rect width="46" height="24.125" x="452" y="114.5"></rect><rect width="46" height="24.125" x="402" y="114.5"></rect><rect width="46" height="24.125" x="402" y="142.625"></rect><rect width="46" height="24.125" x="452" y="142.625"></rect><rect width="46" height="24.125" x="452" y="170.75"></rect><rect width="46" height="24.125" x="402" y="170.75"></rect><rect width="46" height="24.125" x="402" y="198.875"></rect><rect width="46" height="24.125" x="452" y="198.875"></rect><rect width="46" height="24.125" x="552" y="170.75"></rect><rect width="46" height="24.125" x="502" y="170.75"></rect><rect width="46" height="24.125" x="502" y="198.875"></rect><rect width="46" height="24.125" x="552" y="198.875"></rect><rect width="96" height="52.25" x="702" y="114.5"></rect><rect width="96" height="52.25" x="602" y="114.5"></rect><rect width="96" height="52.25" x="602" y="170.75"></rect><rect width="96" height="52.25" x="702" y="170.75"></rect><rect width="96" height="52.25" x="302" y="2"></rect><rect width="96" height="52.25" x="202" y="2"></rect><rect width="96" height="52.25" x="202" y="58.25"></rect><rect width="96" height="52.25" x="302" y="58.25"></rect><rect width="196" height="108.5" x="2" y="2"></rect><rect width="96" height="52.25" x="102" y="114.5"></rect><rect width="96" height="52.25" x="2" y="114.5"></rect><rect width="96" height="52.25" x="2" y="170.75"></rect><rect width="96" height="52.25" x="102" y="170.75"></rect><rect width="96" height="52.25" x="302" y="114.5"></rect><rect width="96" height="52.25" x="202" y="114.5"></rect><rect width="96" height="52.25" x="202" y="170.75"></rect><rect width="46" height="24.125" x="352" y="170.75"></rect><rect width="46" height="24.125" x="302" y="170.75"></rect><rect width="46" height="24.125" x="302" y="198.875"></rect><rect width="46" height="24.125" x="352" y="198.875"></rect><rect width="96" height="52.25" x="302" y="227"></rect><rect width="46" height="24.125" x="252" y="227"></rect><rect width="46" height="24.125" x="202" y="227"></rect><rect width="46" height="24.125" x="202" y="255.125"></rect><rect width="46" height="24.125" x="252" y="255.125"></rect><rect width="96" height="52.25" x="202" y="283.25"></rect><rect width="96" height="52.25" x="302" y="283.25"></rect><rect width="96" height="52.25" x="102" y="227"></rect><rect width="96" height="52.25" x="2" y="227"></rect><rect width="96" height="52.25" x="2" y="283.25"></rect><rect width="96" height="52.25" x="102" y="283.25"></rect><rect width="96" height="52.25" x="102" y="339.5"></rect><rect width="96" height="52.25" x="2" y="339.5"></rect><rect width="96" height="52.25" x="2" y="395.75"></rect><rect width="96" height="52.25" x="102" y="395.75"></rect><rect width="96" height="52.25" x="302" y="339.5"></rect><rect width="96" height="52.25" x="202" y="339.5"></rect><rect width="96" height="52.25" x="202" y="395.75"></rect><rect width="96" height="52.25" x="302" y="395.75"></rect><rect width="96" height="52.25" x="702" y="227"></rect><rect width="96" height="52.25" x="602" y="227"></rect><rect width="96" height="52.25" x="602" y="283.25"></rect><rect width="96" height="52.25" x="702" y="283.25"></rect><rect width="96" height="52.25" x="502" y="227"></rect><rect width="96" height="52.25" x="402" y="227"></rect><rect width="96" height="52.25" x="402" y="283.25"></rect><rect width="46" height="24.125" x="552" y="283.25"></rect><rect width="46" height="24.125" x="502" y="283.25"></rect><rect width="46" height="24.125" x="502" y="311.375"></rect><rect width="46" height="24.125" x="552" y="311.375"></rect><rect width="96" height="52.25" x="502" y="339.5"></rect><rect width="96" height="52.25" x="402" y="339.5"></rect><rect width="96" height="52.25" x="402" y="395.75"></rect><rect width="96" height="52.25" x="502" y="395.75"></rect><rect width="196" height="108.5" x="602" y="339.5"></rect></g><g fill="hsl(71, 43%, 73%)" shape-rendering="crispEdges"><polygon points="602,110.5 798,2 602,2"></polygon><polygon points="502,2 598,54.25 502,54.25"></polygon><polygon points="498,2 498,54.25 402,54.25"></polygon><polygon points="402,110.5 498,58.25 402,58.25"></polygon><polygon points="598,110.5 502,58.25 598,58.25"></polygon><polygon points="502,166.75 502,114.5 598,166.75"></polygon><polygon points="498,114.5 498,138.625 452,138.625"></polygon><polygon points="448,114.5 402,114.5 402,138.625"></polygon><polygon points="402,166.75 448,142.625 448,166.75"></polygon><polygon points="498,142.625 498,166.75 452,166.75"></polygon><polygon points="498,170.75 452,170.75 498,194.875"></polygon><polygon points="448,170.75 448,194.875 402,194.875"></polygon><polygon points="448,198.875 402,223 402,198.875"></polygon><polygon points="498,223 498,198.875 452,198.875"></polygon><polygon points="598,194.875 598,170.75 552,194.875"></polygon><polygon points="548,194.875 502,194.875 548,170.75"></polygon><polygon points="548,223 548,198.875 502,223"></polygon><polygon points="552,198.875 598,223 598,198.875"></polygon><polygon points="798,114.5 702,166.75 798,166.75"></polygon><polygon points="602,166.75 698,114.5 698,166.75"></polygon><polygon points="698,223 602,170.75 698,170.75"></polygon><polygon points="798,170.75 798,223 702,170.75"></polygon><polygon points="302,54.25 398,54.25 398,2"></polygon><polygon points="298,2 202,54.25 202,2"></polygon><polygon points="202,58.25 298,110.5 202,110.5"></polygon><polygon points="398,110.5 302,110.5 302,58.25"></polygon><polygon points="198,2 198,110.5 2,110.5"></polygon><polygon points="198,114.5 102,114.5 102,166.75"></polygon><polygon points="98,114.5 2,114.5 2,166.75"></polygon><polygon points="2,223 2,170.75 98,170.75"></polygon><polygon points="198,170.75 102,223 198,223"></polygon><polygon points="302,114.5 302,166.75 398,166.75"></polygon><polygon points="298,166.75 298,114.5 202,114.5"></polygon><polygon points="298,223 298,170.75 202,223"></polygon><polygon points="398,194.875 352,170.75 352,194.875"></polygon><polygon points="348,170.75 348,194.875 302,170.75"></polygon><polygon points="348,223 302,198.875 348,198.875"></polygon><polygon points="398,223 352,223 398,198.875"></polygon><polygon points="302,227 398,279.25 302,279.25"></polygon><polygon points="298,227 298,251.125 252,251.125"></polygon><polygon points="248,227 202,251.125 202,227"></polygon><polygon points="202,255.125 248,255.125 248,279.25"></polygon><polygon points="298,255.125 252,255.125 252,279.25"></polygon><polygon points="298,283.25 202,335.5 202,283.25"></polygon><polygon points="302,283.25 302,335.5 398,283.25"></polygon><polygon points="102,279.25 198,227 102,227"></polygon><polygon points="2,227 98,227 98,279.25"></polygon><polygon points="98,283.25 98,335.5 2,283.25"></polygon><polygon points="198,283.25 102,335.5 102,283.25"></polygon><polygon points="102,391.75 198,391.75 198,339.5"></polygon><polygon points="2,391.75 98,339.5 98,391.75"></polygon><polygon points="98,448 98,395.75 2,395.75"></polygon><polygon points="102,395.75 198,448 102,448"></polygon><polygon points="302,339.5 398,391.75 398,339.5"></polygon><polygon points="298,339.5 298,391.75 202,391.75"></polygon><polygon points="298,395.75 298,448 202,395.75"></polygon><polygon points="398,448 302,448 302,395.75"></polygon><polygon points="798,279.25 702,227 702,279.25"></polygon><polygon points="602,279.25 602,227 698,227"></polygon><polygon points="698,283.25 698,335.5 602,335.5"></polygon><polygon points="798,335.5 702,283.25 798,283.25"></polygon><polygon points="502,279.25 598,227 502,227"></polygon><polygon points="498,227 498,279.25 402,227"></polygon><polygon points="402,335.5 498,283.25 402,283.25"></polygon><polygon points="598,307.375 552,307.375 598,283.25"></polygon><polygon points="502,283.25 548,283.25 548,307.375"></polygon><polygon points="502,311.375 502,335.5 548,311.375"></polygon><polygon points="598,311.375 598,335.5 552,335.5"></polygon><polygon points="598,339.5 502,391.75 502,339.5"></polygon><polygon points="498,339.5 402,339.5 402,391.75"></polygon><polygon points="402,395.75 498,448 498,395.75"></polygon><polygon points="598,448 502,448 598,395.75"></polygon><polygon points="798,448 602,448 798,339.5"></polygon></g><g fill="hsl(71, 43%, 95%)" stroke-width="3" stroke="#1c98bb"><circle r="27.125" cx="700" cy="56.25"></circle><circle r="13.0625" cx="550" cy="28.125"></circle><circle r="13.0625" cx="450" cy="28.125"></circle><circle r="13.0625" cx="450" cy="84.375"></circle><circle r="13.0625" cx="550" cy="84.375"></circle><circle r="13.0625" cx="550" cy="140.625"></circle><circle r="6.03125" cx="475" cy="126.5625"></circle><circle r="6.03125" cx="425" cy="126.5625"></circle><circle r="6.03125" cx="425" cy="154.6875"></circle><circle r="6.03125" cx="475" cy="154.6875"></circle><circle r="6.03125" cx="475" cy="182.8125"></circle><circle r="6.03125" cx="425" cy="182.8125"></circle><circle r="6.03125" cx="425" cy="210.9375"></circle><circle r="6.03125" cx="475" cy="210.9375"></circle><circle r="6.03125" cx="575" cy="182.8125"></circle><circle r="6.03125" cx="525" cy="182.8125"></circle><circle r="6.03125" cx="525" cy="210.9375"></circle><circle r="6.03125" cx="575" cy="210.9375"></circle><circle r="13.0625" cx="750" cy="140.625"></circle><circle r="13.0625" cx="650" cy="140.625"></circle><circle r="13.0625" cx="650" cy="196.875"></circle><circle r="13.0625" cx="750" cy="196.875"></circle><circle r="13.0625" cx="350" cy="28.125"></circle><circle r="13.0625" cx="250" cy="28.125"></circle><circle r="13.0625" cx="250" cy="84.375"></circle><circle r="13.0625" cx="350" cy="84.375"></circle><circle r="27.125" cx="100" cy="56.25"></circle><circle r="13.0625" cx="150" cy="140.625"></circle><circle r="13.0625" cx="50" cy="140.625"></circle><circle r="13.0625" cx="50" cy="196.875"></circle><circle r="13.0625" cx="150" cy="196.875"></circle><circle r="13.0625" cx="350" cy="140.625"></circle><circle r="13.0625" cx="250" cy="140.625"></circle><circle r="13.0625" cx="250" cy="196.875"></circle><circle r="6.03125" cx="375" cy="182.8125"></circle><circle r="6.03125" cx="325" cy="182.8125"></circle><circle r="6.03125" cx="325" cy="210.9375"></circle><circle r="6.03125" cx="375" cy="210.9375"></circle><circle r="13.0625" cx="350" cy="253.125"></circle><circle r="6.03125" cx="275" cy="239.0625"></circle><circle r="6.03125" cx="225" cy="239.0625"></circle><circle r="6.03125" cx="225" cy="267.1875"></circle><circle r="6.03125" cx="275" cy="267.1875"></circle><circle r="13.0625" cx="250" cy="309.375"></circle><circle r="13.0625" cx="350" cy="309.375"></circle><circle r="13.0625" cx="150" cy="253.125"></circle><circle r="13.0625" cx="50" cy="253.125"></circle><circle r="13.0625" cx="50" cy="309.375"></circle><circle r="13.0625" cx="150" cy="309.375"></circle><circle r="13.0625" cx="150" cy="365.625"></circle><circle r="13.0625" cx="50" cy="365.625"></circle><circle r="13.0625" cx="50" cy="421.875"></circle><circle r="13.0625" cx="150" cy="421.875"></circle><circle r="13.0625" cx="350" cy="365.625"></circle><circle r="13.0625" cx="250" cy="365.625"></circle><circle r="13.0625" cx="250" cy="421.875"></circle><circle r="13.0625" cx="350" cy="421.875"></circle><circle r="13.0625" cx="750" cy="253.125"></circle><circle r="13.0625" cx="650" cy="253.125"></circle><circle r="13.0625" cx="650" cy="309.375"></circle><circle r="13.0625" cx="750" cy="309.375"></circle><circle r="13.0625" cx="550" cy="253.125"></circle><circle r="13.0625" cx="450" cy="253.125"></circle><circle r="13.0625" cx="450" cy="309.375"></circle><circle r="6.03125" cx="575" cy="295.3125"></circle><circle r="6.03125" cx="525" cy="295.3125"></circle><circle r="6.03125" cx="525" cy="323.4375"></circle><circle r="6.03125" cx="575" cy="323.4375"></circle><circle r="13.0625" cx="550" cy="365.625"></circle><circle r="13.0625" cx="450" cy="365.625"></circle><circle r="13.0625" cx="450" cy="421.875"></circle><circle r="13.0625" cx="550" cy="421.875"></circle><circle r="27.125" cx="700" cy="393.75"></circle></g></svg>